<svg width="209" height="70" viewBox="0 0 209 70" fill="none" xmlns="http://www.w3.org/2000/svg">
<path d="M68.1041 44.6336C67.5068 44.6336 66.9748 44.5169 66.5081 44.2836C66.0508 44.0502 65.6635 43.7376 65.3461 43.3456C65.0381 42.9442 64.8048 42.4916 64.6461 41.9876C64.4875 41.4836 64.4081 40.9702 64.4081 40.4476C64.4081 39.8876 64.4968 39.3276 64.6741 38.7676C64.8608 38.2076 65.1221 37.6756 65.4581 37.1716C65.8035 36.6676 66.2095 36.2196 66.6761 35.8276C67.1521 35.4356 67.6841 35.1276 68.2721 34.9036C68.8601 34.6702 69.4948 34.5536 70.1761 34.5536C71.0908 34.5536 71.8235 34.7589 72.3741 35.1696C72.9341 35.5709 73.3028 36.0889 73.4801 36.7236L71.8281 37.7176C71.7441 37.3349 71.5948 37.0409 71.3801 36.8356C71.1748 36.6209 70.9368 36.4716 70.6661 36.3876C70.3955 36.3036 70.1155 36.2616 69.8261 36.2616C69.2475 36.2616 68.7435 36.3876 68.3141 36.6396C67.8848 36.8822 67.5255 37.2042 67.2361 37.6056C66.9468 38.0069 66.7275 38.4456 66.5781 38.9216C66.4381 39.3882 66.3681 39.8409 66.3681 40.2796C66.3681 40.7556 66.4475 41.1942 66.6061 41.5956C66.7648 41.9969 67.0028 42.3189 67.3201 42.5616C67.6375 42.8042 68.0248 42.9256 68.4821 42.9256C68.7715 42.9256 69.0701 42.8742 69.3781 42.7716C69.6955 42.6596 69.9988 42.4962 70.2881 42.2816C70.5775 42.0576 70.8295 41.7682 71.0441 41.4136L72.4301 42.3236C72.1128 42.8276 71.7115 43.2522 71.2261 43.5976C70.7408 43.9429 70.2228 44.2042 69.6721 44.3816C69.1308 44.5496 68.6081 44.6336 68.1041 44.6336ZM75.359 34.6096H81.799L81.449 36.3036H76.913L76.409 38.6976H80.315L79.979 40.2656H76.073L75.527 42.8556H80.175L79.811 44.5496H73.245L75.359 34.6096ZM83.4527 34.6096H84.9507L88.3387 41.1336L89.7247 34.6236H91.6427L89.5287 44.5496H87.9747L84.6007 38.1796L83.2567 44.5496H81.3387L83.4527 34.6096ZM95.5123 36.3036H92.5303L92.8803 34.6096H100.762L100.398 36.3036H97.4303L95.6803 44.5496H93.7483L95.5123 36.3036ZM99.8915 44.5496L102.005 34.6096H106.205C106.709 34.6096 107.139 34.7402 107.493 35.0016C107.848 35.2629 108.119 35.6036 108.305 36.0236C108.501 36.4436 108.599 36.8869 108.599 37.3536C108.599 37.7176 108.539 38.0769 108.417 38.4316C108.305 38.7769 108.142 39.1036 107.927 39.4116C107.713 39.7196 107.461 39.9949 107.171 40.2376C106.891 40.4802 106.583 40.6716 106.247 40.8116L107.591 44.5496H105.407L104.231 41.2176H102.509L101.809 44.5496H99.8915ZM105.099 39.5236C105.295 39.5236 105.482 39.4722 105.659 39.3696C105.837 39.2576 105.995 39.1129 106.135 38.9356C106.285 38.7489 106.401 38.5389 106.485 38.3056C106.569 38.0629 106.611 37.8109 106.611 37.5496C106.611 37.3069 106.569 37.0922 106.485 36.9056C106.411 36.7189 106.303 36.5742 106.163 36.4716C106.033 36.3596 105.883 36.3036 105.715 36.3036H103.559L102.873 39.5236H105.099ZM113.662 34.6096H115.384L116.826 44.5496H114.838L114.53 42.0716H111.324L109.98 44.5496H107.992L113.662 34.6096ZM114.488 40.7136L114.054 36.8076L111.926 40.7136H114.488ZM120.011 34.6096H121.929L120.179 42.8556H124.925L124.575 44.5496H117.897L120.011 34.6096ZM130.757 34.6096H134.215C135.074 34.6096 135.779 34.7822 136.329 35.1276C136.88 35.4636 137.291 35.9209 137.561 36.4996C137.832 37.0782 137.967 37.7316 137.967 38.4596C137.967 39.3369 137.818 40.1489 137.519 40.8956C137.23 41.6329 136.819 42.2769 136.287 42.8276C135.765 43.3689 135.144 43.7936 134.425 44.1016C133.716 44.4002 132.941 44.5496 132.101 44.5496H128.643L130.757 34.6096ZM132.451 42.8556C132.993 42.8556 133.478 42.7482 133.907 42.5336C134.346 42.3096 134.719 42.0062 135.027 41.6236C135.335 41.2316 135.569 40.7882 135.727 40.2936C135.895 39.7989 135.979 39.2809 135.979 38.7396C135.979 38.2542 135.9 37.8296 135.741 37.4656C135.583 37.1016 135.345 36.8169 135.027 36.6116C134.719 36.4062 134.327 36.3036 133.851 36.3036H132.311L130.925 42.8556H132.451ZM140.451 34.6096H146.891L146.541 36.3036H142.005L141.501 38.6976H145.407L145.071 40.2656H141.165L140.619 42.8556H145.267L144.903 44.5496H138.337L140.451 34.6096ZM153.235 36.3036H150.253L150.603 34.6096H158.485L158.121 36.3036H155.153L153.403 44.5496H151.471L153.235 36.3036ZM161.445 34.6096H163.167L164.609 44.5496H162.621L162.313 42.0716H159.107L157.763 44.5496H155.775L161.445 34.6096ZM162.271 40.7136L161.837 36.8076L159.709 40.7136H162.271ZM168.999 39.6496L166.731 34.6096H168.831L170.315 38.3056L173.367 34.6096H175.453L171.043 39.6496L173.227 44.5496H171.141L169.741 40.9936L166.829 44.5496H164.729L168.999 39.6496ZM176.462 34.6236H178.38L176.266 44.5496H174.348L176.462 34.6236Z" fill="#00B0D5"/>
<path d="M66.1441 56.2194H70.1481C70.6521 56.2194 71.0815 56.3501 71.4361 56.6114C71.8001 56.8728 72.0755 57.2134 72.2621 57.6334C72.4488 58.0534 72.5421 58.4968 72.5421 58.9634C72.5421 59.4208 72.4441 59.8828 72.2481 60.3494C72.0521 60.8068 71.7815 61.2221 71.4361 61.5954C71.1001 61.9688 70.7035 62.2674 70.2461 62.4914C69.7981 62.7154 69.3221 62.8274 68.8181 62.8274H66.6481L65.9481 66.1594H64.0301L66.1441 56.2194ZM69.0421 61.1334C69.2381 61.1334 69.4248 61.0821 69.6021 60.9794C69.7888 60.8768 69.9521 60.7368 70.0921 60.5594C70.2415 60.3728 70.3581 60.1581 70.4421 59.9154C70.5261 59.6728 70.5681 59.4068 70.5681 59.1174C70.5681 58.8654 70.5261 58.6508 70.4421 58.4734C70.3675 58.2868 70.2601 58.1468 70.1201 58.0534C69.9801 57.9601 69.8261 57.9134 69.6581 57.9134H67.6981L67.0121 61.1334H69.0421ZM74.5523 56.2334H76.4703L74.3563 66.1594H72.4383L74.5523 56.2334ZM78.5445 56.2194H82.5485C83.0525 56.2194 83.4819 56.3501 83.8365 56.6114C84.2005 56.8728 84.4759 57.2134 84.6625 57.6334C84.8492 58.0534 84.9425 58.4968 84.9425 58.9634C84.9425 59.4208 84.8445 59.8828 84.6485 60.3494C84.4525 60.8068 84.1819 61.2221 83.8365 61.5954C83.5005 61.9688 83.1039 62.2674 82.6465 62.4914C82.1985 62.7154 81.7225 62.8274 81.2185 62.8274H79.0485L78.3485 66.1594H76.4305L78.5445 56.2194ZM81.4425 61.1334C81.6385 61.1334 81.8252 61.0821 82.0025 60.9794C82.1892 60.8768 82.3525 60.7368 82.4925 60.5594C82.6419 60.3728 82.7585 60.1581 82.8425 59.9154C82.9265 59.6728 82.9685 59.4068 82.9685 59.1174C82.9685 58.8654 82.9265 58.6508 82.8425 58.4734C82.7679 58.2868 82.6605 58.1468 82.5205 58.0534C82.3805 57.9601 82.2265 57.9134 82.0585 57.9134H80.0985L79.4125 61.1334H81.4425ZM88.9431 56.2194H90.6651L92.1071 66.1594H90.1191L89.8111 63.6814H86.6051L85.2611 66.1594H83.2731L88.9431 56.2194ZM89.7691 62.3234L89.3351 58.4174L87.2071 62.3234H89.7691Z" fill="#00B0D5"/>
<path d="M25.6946 37.0476L5.59277 51.652C9.90925 58.4611 17.7646 63.9086 26.0458 65.7479C29.7275 66.5656 37.5067 66.3097 41.1815 65.2498C43.914 64.4617 48.3748 62.4859 49.7529 61.4538C50.4156 60.9574 50.2288 60.9271 47.7158 61.1142C40.7253 61.6347 34.2312 58.7748 29.85 53.2472C26.8932 49.5167 25.4987 45.3312 25.4987 40.186C25.4987 39.0964 25.5689 38.0548 25.6946 37.0476Z" fill="#00B0D5"/>
<path d="M17.2141 22.8767C9.98247 28.3782 5.04495 37.0663 4.14348 46.2149C3.90678 48.6168 3.95729 48.8741 5.01145 50.708C5.03 50.7404 5.05206 50.7715 5.07083 50.8037L25.9125 35.6607C26.2658 33.8093 26.8444 32.0878 27.6734 30.4768L17.2141 22.8767Z" fill="#00B0D5"/>
<path d="M36.3666 16.3456C30.8255 16.45 24.9743 18.0437 20.2003 20.8605C19.4653 21.2941 18.756 21.7696 18.0591 22.264L28.1548 29.5995C29.0424 28.0805 30.1544 26.6545 31.5121 25.2982C35.7755 21.0391 40.0831 19.2669 46.1967 19.2548C48.0521 19.2507 49.5706 19.1876 49.5706 19.113C49.5706 18.8463 43.8774 17.124 41.7526 16.7477C40.0258 16.442 38.2137 16.3108 36.3666 16.3456Z" fill="#00B0D5"/>
<path d="M16.6147 22.4422L9.93459 17.5886C5.11877 22.4097 1.7633 28.6771 0.635973 35.2512C0.168867 37.9752 0.615246 40.7966 2.16977 44.9468C3.00982 47.1896 3.59385 47.2093 3.61603 44.9948C3.63237 43.378 4.59123 39.5865 5.67915 36.8361C7.94584 31.1057 11.7943 26.1369 16.6147 22.4422Z" fill="#2FD5F5" fill-opacity="0.941176"/>
<path d="M33.5918 8.15753C27.1886 7.97283 20.7792 9.68648 15.329 13.2122C13.6633 14.2897 12.1071 15.5308 10.6641 16.8914L17.4453 21.8179C20.69 19.4838 24.34 17.7132 28.2339 16.6695C32.5631 15.5081 40.5285 15.5065 44.8284 16.6634C48.5577 17.6675 55.2479 20.9518 58.4023 23.3269C59.6625 24.2757 60.7486 24.9974 60.8155 24.9315C60.8825 24.8656 60.3615 23.9121 59.6579 22.8121C56.5165 17.9014 50.4083 12.8289 44.9024 10.5585C41.2734 9.06197 37.4336 8.26839 33.5918 8.15753Z" fill="#2FD5F5" fill-opacity="0.941176"/>
<path d="M9.33351 17.152L5.76995 14.5627C4.14669 16.9755 2.81913 19.624 1.8469 22.4651C0.921901 25.1681 -0.0440175 30.4476 0.00155199 32.5504L0.0349035 34.0529L0.519423 32.2899C2.119 26.4692 5.21666 21.2751 9.33351 17.152Z" fill="#4AE1FF"/>
<path d="M6.34814 13.7552L10.0607 16.4529C14.214 12.5318 19.3175 9.66205 24.9516 8.29936C32.0386 6.58528 40.6806 7.53042 47.0426 10.7157C54.5356 14.4672 59.517 19.8078 63.484 28.3408L65.2918 32.2294L65.047 29.8589C64.2241 21.8771 60.5599 14.5151 54.5824 8.83702C47.261 1.88242 36.981 -1.27183 27.3221 0.472032C18.7381 2.02182 11.2983 6.8514 6.34814 13.7552Z" fill="#4AE1FF"/>
</svg>
